# xmcd
#
# Track frame offsets:
#	150
#	21662
#	36428
#	55631
#	79809
#	91404
#	105951
#	121394
#	131328
#	143329
#	156985
#	169222
#	183085
#	200366
#	211793
#	226065
#	243480
#	259851
#	277203
#	289090
#
# Disc length: 3999 seconds
#
# Revision: 1
# Processed by: cddbd v1.5.2PL0 Copyright (c) Steve Scherf et al.
# Submitted via: audiograbber 1.83.01
#
DISCID=160f9d14
DTITLE=Various Artist - Country Greats - The Ultimate Collection CD1
DYEAR=2017
DGENRE=Country
TTITLE0=Lynyrd Skynyrd - Sweet Home Alabama
TTITLE1=Glen Campbell - Rhinestone Cowboy
TTITLE2=Bobbie Gentry - Ode To Billie Joe
TTITLE3=The Judds - Love Can Build A Bridge
TTITLE4=Hank Williams III - Six Pack Of Beer
TTITLE5=The Bellamy Brothers - If I Said You Had A Beautiful Body Would You Hol
TTITLE5=d It Against Me
TTITLE6=Billy Ray Cyrus - Achy Breaky Heart
TTITLE7=Tom T. Hall - Country Is
TTITLE8=Jerry Lee Lewis - What's Made Milwaukee Famous
TTITLE9=Faron Young - It's Four In The Morning
TTITLE10=Johnny Cash - Goodnight Irene
TTITLE11=Amy Grant - Big Yellow Taxi (2007 Remaster)
TTITLE12=Billy Currington - Let Me Down Easy
TTITLE13=Parry Page - A Poor Man's Rose (Or Rich Man's Gold)
TTITLE14=Soggy Bottom Boys - I Am A Man Of Constant Sorrow
TTITLE15=Dillard and Clark - Train Leaves Here This Morning
TTITLE16=Rita Coolidge - We're All Alone
TTITLE17=C.W. McCall - Convoy
TTITLE18=Marvin Rainwater - Whole Lotta Woman
TTITLE19=Carl Perkins - Dixie Fried
EXTD=
EXTT0=
EXTT1=
EXTT2=
EXTT3=
EXTT4=
EXTT5=
EXTT6=
EXTT7=
EXTT8=
EXTT9=
EXTT10=
EXTT11=
EXTT12=
EXTT13=
EXTT14=
EXTT15=
EXTT16=
EXTT17=
EXTT18=
EXTT19=
PLAYORDER=
